<?xml version="1.0" encoding="UTF-8"?>
<svg width="500px" height="500px" viewBox="0 0 500 500" version="1.1" xmlns="http://www.w3.org/2000/svg" xmlns:xlink="http://www.w3.org/1999/xlink">
    <!-- Generator: Sketch 55.2 (78181) - https://sketchapp.com -->
    <title>Artboard</title>
    <desc>Created with Sketch.</desc>
    <defs>
        <linearGradient x1="50%" y1="0%" x2="50%" y2="100%" id="linearGradient-1">
            <stop stop-color="#4E5990" offset="0%"></stop>
            <stop stop-color="#262D57" offset="100%"></stop>
        </linearGradient>
    </defs>
    <g id="Artboard" stroke="none" stroke-width="1" fill="none" fill-rule="evenodd">
        <path d="M89.735982,-3.62544108e-15 L410.264018,3.62544108e-15 C441.467174,-2.10648567e-15 452.782192,3.24889639 464.1896,9.34964463 C475.597007,15.4503929 484.549607,24.402993 490.650355,35.8104004 C496.751104,47.2178078 500,58.5328261 500,89.735982 L500,410.264018 C500,441.467174 496.751104,452.782192 490.650355,464.1896 C484.549607,475.597007 475.597007,484.549607 464.1896,490.650355 C452.782192,496.751104 441.467174,500 410.264018,500 L89.735982,500 C58.5328261,500 47.2178078,496.751104 35.8104004,490.650355 C24.402993,484.549607 15.4503929,475.597007 9.34964463,464.1896 C3.24889639,452.782192 1.40432378e-15,441.467174 -2.41696072e-15,410.264018 L2.41696072e-15,89.735982 C-1.40432378e-15,58.5328261 3.24889639,47.2178078 9.34964463,35.8104004 C15.4503929,24.402993 24.402993,15.4503929 35.8104004,9.34964463 C47.2178078,3.24889639 58.5328261,2.10648567e-15 89.735982,-3.62544108e-15 Z" id="Rectangle" fill="url(#linearGradient-1)" fill-rule="nonzero"></path>
        <polygon id="Fill-3" fill="#FFFFFF" points="380.1973 117.7729 312.3813 117.7729 244.5653 193.0199 176.3833 117.7849 114.0003 117.7849 114.0003 378.5979 169.6953 378.5979 169.6953 210.0749 241.5683 282.7389 247.4393 282.5319"></polygon>
        <path d="M355.2949,274.9307 C346.9199,275.0017 338.6599,272.9707 331.2729,269.0227 L331.2729,378.5977 L379.9999,378.5977 L379.9999,268.9617 C372.3879,272.9697 363.8979,275.0217 355.2949,274.9307 M355.4849,244.5957 C348.9439,244.5957 343.2719,242.1987 338.4759,237.3847 C333.6709,232.5997 331.2729,226.9377 331.2729,220.3987 C331.2729,213.8597 333.6709,208.1397 338.4849,203.2277 C343.2619,198.3167 348.9349,195.8707 355.4759,195.8707 C362.2209,195.8707 367.9909,198.3167 372.7969,203.2187 C377.5929,208.1297 379.9999,213.8407 379.9999,220.3887 C379.9999,226.9177 377.5929,232.5897 372.7869,237.3937 C368.2579,242.0807 361.9929,244.6867 355.4759,244.5957" id="Fill-5" fill="#FFFFFF"></path>
    </g>
</svg>